<svg version="1.1" id="Layer_1" xmlns="http://www.w3.org/2000/svg" xmlns:xlink="http://www.w3.org/1999/xlink" x="0px" y="0px"
	 width="100%" viewBox="0 0 705 351" enable-background="new 0 0 705 351" xml:space="preserve">
<path fill="#933482" opacity="1.000000" stroke="none" 
	d="
M478.000000,0.999999 
	C553.923828,1.000000 629.847717,1.000000 706.000000,1.000000 
	C706.000000,70.354057 706.000000,139.708374 705.691040,209.659668 
	C704.062622,211.525253 702.691956,212.745193 701.431030,214.069550 
	C673.007935,243.922058 641.254456,269.700867 606.118958,291.214996 
	C593.065613,299.207825 579.461975,306.302002 565.864136,313.892853 
	C565.448669,314.012726 565.278442,314.045746 564.645508,314.061615 
	C553.437744,314.696198 542.667053,315.071899 531.953857,316.066803 
	C517.281372,317.429321 502.652618,319.262054 487.863770,320.623474 
	C486.480194,320.552826 485.237946,320.751984 483.621033,320.964417 
	C482.496765,321.002960 481.747131,321.028290 480.784546,320.777771 
	C478.997375,319.668915 477.423096,318.835907 477.003418,318.613831 
	C475.572083,314.799683 474.405182,311.990387 473.462646,309.107788 
	C472.060944,304.820892 471.691132,300.955933 474.516144,296.568329 
	C476.443604,293.574768 477.181335,288.826691 476.383575,285.335510 
	C475.527740,281.590393 472.167816,278.447662 470.095398,274.927429 
	C469.625763,274.129669 469.640076,272.056549 469.969879,271.925568 
	C475.895874,269.571716 473.444855,262.984436 476.462067,259.178009 
	C476.949585,258.562958 476.425079,256.965179 476.091492,255.909088 
	C473.896484,248.959671 473.578522,242.113815 479.114655,236.642639 
	C482.268524,233.525772 481.156830,231.868011 478.715454,229.345963 
	C477.377838,227.964127 475.777466,225.320892 476.269836,223.961655 
	C477.878174,219.521774 477.255768,215.706543 474.355560,212.139877 
	C475.979004,211.239746 477.057617,210.641708 478.149017,210.036575 
	C476.488556,206.089890 474.969513,202.479416 472.994415,197.784958 
	C474.890320,193.744400 478.053619,195.841431 482.291870,198.148270 
	C481.674225,194.084930 481.056580,190.021606 480.385559,185.607086 
	C472.656219,187.394958 474.910309,181.458145 473.728210,177.682953 
	C477.667755,176.446960 479.036224,174.553101 475.516418,171.056274 
	C474.744720,170.289627 474.887695,167.249008 475.734344,166.454788 
	C478.524597,163.837372 477.103546,162.371826 475.144073,160.323715 
	C473.895996,159.019196 472.217346,156.650574 472.650269,155.452072 
	C475.582642,147.333511 470.602905,138.274750 475.873749,130.479233 
	C477.317108,128.344589 478.049194,125.729057 479.253204,123.004967 
	C476.185822,122.611412 472.018646,124.883644 470.036560,119.361572 
	C472.579071,119.863602 474.219910,120.187592 476.599701,120.657486 
	C475.834808,119.080284 475.054840,118.153870 474.974365,117.170235 
	C474.780945,114.805359 474.438324,112.284515 475.038910,110.065620 
	C475.782288,107.319260 477.392273,104.801727 478.674652,102.208466 
	C480.258545,99.005363 480.099945,96.255898 477.244720,93.676231 
	C476.662811,93.150444 477.600311,91.201241 477.339081,90.018265 
	C476.100616,84.410545 480.384949,77.779602 474.156067,73.010040 
	C473.552551,72.547913 474.061523,70.643585 474.039948,69.408966 
	C473.938568,63.608601 477.520264,57.975677 473.131317,51.854183 
	C471.197754,49.157299 471.526917,44.280254 474.739685,40.433029 
	C477.477173,37.154968 477.869080,32.952190 476.206268,28.209057 
	C474.435547,23.158136 465.304108,19.086037 473.651367,11.822491 
	C476.262726,9.550172 476.614105,4.680655 478.000000,0.999999 
M479.855988,273.243561 
	C479.962708,273.096558 480.069427,272.949524 480.176147,272.802460 
	C480.020416,272.894989 479.864685,272.987488 479.855988,273.243561 
M481.725220,283.076599 
	C481.903625,283.045624 482.082062,283.014679 482.260468,282.983734 
	C482.085114,282.940582 481.909790,282.897430 481.725220,283.076599 
M479.756378,301.856110 
	C479.903442,301.962799 480.050537,302.069489 480.197571,302.176178 
	C480.105011,302.020447 480.012451,301.864716 479.756378,301.856110 
M476.243652,143.143906 
	C476.096588,143.037201 475.949524,142.930496 475.802429,142.823792 
	C475.894989,142.979523 475.987518,143.135269 476.243652,143.143906 
M480.923401,76.725296 
	C480.954346,76.903687 480.985260,77.082085 481.016205,77.260475 
	C481.059357,77.085159 481.102509,76.909843 480.923401,76.725296 
M479.856110,46.243603 
	C479.962830,46.096542 480.069550,45.949482 480.176270,45.802414 
	C480.020508,45.894947 479.864746,45.987484 479.856110,46.243603 
M482.143890,26.756395 
	C482.037170,26.903452 481.930481,27.050508 481.823792,27.197578 
	C481.979523,27.105047 482.135254,27.012514 482.143890,26.756395 
M480.243591,17.143940 
	C480.096527,17.037237 479.949463,16.930534 479.802429,16.823820 
	C479.894958,16.979555 479.987488,17.135290 480.243591,17.143940 
z"/>
<path fill="#8F2E81" opacity="1.000000" stroke="none" 
	d="
M477.531342,0.999999 
	C476.614105,4.680655 476.262726,9.550172 473.651367,11.822491 
	C465.304108,19.086037 474.435547,23.158136 476.206268,28.209057 
	C477.869080,32.952190 477.477173,37.154968 474.739685,40.433029 
	C471.526917,44.280254 471.197754,49.157299 473.131317,51.854183 
	C477.520264,57.975677 473.938568,63.608601 474.039948,69.408966 
	C474.061523,70.643585 473.552551,72.547913 474.156067,73.010040 
	C480.384949,77.779602 476.100616,84.410545 477.339081,90.018265 
	C477.600311,91.201241 476.662811,93.150444 477.244720,93.676231 
	C480.099945,96.255898 480.258545,99.005363 478.674652,102.208466 
	C477.392273,104.801727 475.782288,107.319260 475.038910,110.065620 
	C474.438324,112.284515 474.780945,114.805359 474.974365,117.170235 
	C475.054840,118.153870 475.834808,119.080284 476.599701,120.657486 
	C474.219910,120.187592 472.579071,119.863602 470.036560,119.361572 
	C472.018646,124.883644 476.185822,122.611412 479.253204,123.004967 
	C478.049194,125.729057 477.317108,128.344589 475.873749,130.479233 
	C470.602905,138.274750 475.582642,147.333511 472.650269,155.452072 
	C472.217346,156.650574 473.895996,159.019196 475.144073,160.323715 
	C477.103546,162.371826 478.524597,163.837372 475.734344,166.454788 
	C474.887695,167.249008 474.744720,170.289627 475.516418,171.056274 
	C479.036224,174.553101 477.667755,176.446960 473.728210,177.682953 
	C474.910309,181.458145 472.656219,187.394958 480.385559,185.607086 
	C481.056580,190.021606 481.674225,194.084930 482.291870,198.148270 
	C478.053619,195.841431 474.890320,193.744400 472.994415,197.784958 
	C474.969513,202.479416 476.488556,206.089890 478.149017,210.036575 
	C477.057617,210.641708 475.979004,211.239746 474.355560,212.139877 
	C477.255768,215.706543 477.878174,219.521774 476.269836,223.961655 
	C475.777466,225.320892 477.377838,227.964127 478.715454,229.345963 
	C481.156830,231.868011 482.268524,233.525772 479.114655,236.642639 
	C473.578522,242.113815 473.896484,248.959671 476.091492,255.909088 
	C476.425079,256.965179 476.949585,258.562958 476.462067,259.178009 
	C473.444855,262.984436 475.895874,269.571716 469.969879,271.925568 
	C469.640076,272.056549 469.625763,274.129669 470.095398,274.927429 
	C472.167816,278.447662 475.527740,281.590393 476.383575,285.335510 
	C477.181335,288.826691 476.443604,293.574768 474.516144,296.568329 
	C471.691132,300.955933 472.060944,304.820892 473.462646,309.107788 
	C474.405182,311.990387 475.572083,314.799683 477.003418,318.613831 
	C477.423096,318.835907 478.997375,319.668915 480.451233,320.965454 
	C476.220337,322.278015 472.109833,323.127045 467.566193,323.978333 
	C452.736755,326.319763 438.252869,328.223724 423.963989,331.097168 
	C400.879364,335.739380 377.923004,341.019409 354.551697,346.013031 
	C353.467987,346.012573 352.745056,346.029144 351.662476,345.905212 
	C344.540558,344.188660 337.779846,342.605896 331.015656,341.038147 
	C322.008331,338.950439 312.998291,336.874512 304.076477,334.445435 
	C303.515594,330.630371 302.867615,327.163391 302.108368,323.101013 
	C303.640045,323.816925 304.881256,324.802765 306.204346,324.928772 
	C308.744324,325.170685 311.584412,325.543854 313.797516,324.636658 
	C315.018311,324.136230 315.539154,321.179565 315.733978,319.264923 
	C315.821381,318.406006 313.806091,316.476349 313.640228,316.572784 
	C308.359680,319.642334 306.158478,313.030731 301.320129,313.417786 
	C303.247070,310.020660 306.297729,307.265869 302.778168,303.848053 
	C302.509735,303.587402 302.851746,302.578735 303.057678,301.967560 
	C304.877899,296.565582 306.731537,291.174866 308.617737,285.656738 
	C307.795288,285.155121 306.593353,284.422089 305.391418,283.689026 
	C305.372040,283.221375 305.352692,282.753723 305.333313,282.286072 
	C307.721680,281.825134 310.110016,281.364227 313.128845,280.781616 
	C311.482971,277.032715 310.001617,273.658600 308.283173,269.744446 
	C312.530670,268.796997 314.663513,266.989349 311.472382,262.610443 
	C310.667847,261.506470 311.832001,258.889679 312.250214,257.003296 
	C312.483917,255.949188 313.043762,254.967407 313.456604,253.953018 
	C311.884399,253.810425 311.259003,254.436951 310.541412,254.571381 
	C309.081818,254.844833 307.572418,254.852615 306.083557,254.969879 
	C306.192322,253.613297 306.286865,252.255371 306.413116,250.900421 
	C306.615906,248.724091 306.839600,246.549713 306.930267,245.631836 
	C308.605896,242.077591 309.802948,239.538498 311.275574,236.929688 
	C312.132019,236.332596 312.712921,235.805191 313.293823,235.277786 
	C313.039368,235.065781 312.784943,234.853760 312.530487,234.641754 
	C312.020325,235.428040 311.510162,236.214325 310.638306,237.077728 
	C308.725830,237.057602 307.175018,236.960358 305.624237,236.863098 
	C306.041382,235.181290 305.936340,232.982834 306.983521,231.924377 
	C309.219269,229.664597 312.052032,227.995514 314.364502,226.287994 
	C313.152832,224.036316 311.089600,222.006409 311.307007,220.260468 
	C311.906555,215.445816 309.892303,213.468491 305.559784,212.738174 
	C304.888855,212.625092 304.356445,211.690445 303.347260,210.751923 
	C304.540070,210.620590 305.026031,210.450424 305.461151,210.536682 
	C311.855896,211.804382 312.810364,210.808182 312.309296,204.593597 
	C312.090210,201.876770 312.657745,199.007950 313.342865,196.329605 
	C314.165344,193.114182 313.485992,191.253021 309.923553,190.581985 
	C309.237701,192.269165 308.662231,193.684769 308.012024,195.284164 
	C304.162598,191.768921 303.102509,188.571762 307.485443,185.184875 
	C308.529083,184.378403 309.277222,183.174423 310.350586,182.424133 
	C314.333740,179.639969 314.066498,175.589828 312.439148,172.165985 
	C310.867279,168.858932 307.869995,166.229416 305.881439,163.774567 
	C306.960663,158.255310 308.066559,152.599503 309.184692,146.881134 
	C310.227234,148.048676 311.340271,149.295212 312.770477,150.896912 
	C316.783661,141.692444 306.060760,146.505768 305.377930,141.727341 
	C306.159058,140.906158 307.124146,139.891602 308.077362,138.889481 
	C304.778259,132.437759 311.103577,129.737076 313.800995,124.534172 
	C311.769012,123.616280 309.406250,123.157104 307.983551,121.748459 
	C306.300964,120.082512 305.429962,117.596916 304.207123,115.466629 
	C305.614075,114.740273 307.165222,114.197746 308.389099,113.237968 
	C309.722473,112.192360 311.483978,110.899788 311.758575,109.465874 
	C312.291473,106.683121 311.914459,103.726112 311.914459,102.028313 
	C309.542816,100.424698 306.828461,99.565147 305.940979,97.791496 
	C303.931458,93.775238 308.491333,94.301277 310.181946,92.752495 
	C311.719208,91.344223 312.922974,89.571922 314.273743,87.960098 
	C309.169525,89.000626 308.599548,88.558372 308.415802,84.139259 
	C308.351837,82.601410 307.766907,81.011238 307.112488,79.586128 
	C305.316925,75.675827 303.358246,71.840439 301.595428,68.243301 
	C305.773651,68.587692 309.447388,69.393120 313.008820,69.046097 
	C316.751465,68.681412 316.397156,65.220375 315.570709,62.774315 
	C315.257446,61.847214 312.685791,61.617607 311.107544,61.209011 
	C310.215546,60.978088 309.080872,61.322105 308.350159,60.898674 
	C306.164734,59.632328 304.124542,58.115314 301.761108,56.515785 
	C303.606903,53.934502 306.070618,51.114349 302.747589,47.720448 
	C302.538940,47.507374 302.782196,46.757103 302.936768,46.297638 
	C304.763550,40.867283 306.613525,35.444736 308.577759,29.666075 
	C307.901001,29.218870 306.632874,28.380877 305.364746,27.542883 
	C305.363678,27.105909 305.362610,26.668936 305.361511,26.231962 
	C307.684937,25.793793 310.008331,25.355623 313.097137,24.773108 
	C311.516449,21.093792 310.012390,17.592890 308.532166,14.147396 
	C310.316437,12.971715 311.906982,11.923688 312.625336,11.450365 
	C311.986176,7.340850 311.493103,4.170425 311.000000,1.000000 
	C366.354218,1.000000 421.708466,1.000000 477.531342,0.999999 
z"/>
<path fill="#8B2880" opacity="1.000000" stroke="none" 
	d="
M310.531342,1.000000 
	C311.493103,4.170425 311.986176,7.340850 312.625336,11.450365 
	C311.906982,11.923688 310.316437,12.971715 308.532166,14.147396 
	C310.012390,17.592890 311.516449,21.093792 313.097137,24.773108 
	C310.008331,25.355623 307.684937,25.793793 305.361511,26.231962 
	C305.362610,26.668936 305.363678,27.105909 305.364746,27.542883 
	C306.632874,28.380877 307.901001,29.218870 308.577759,29.666075 
	C306.613525,35.444736 304.763550,40.867283 302.936768,46.297638 
	C302.782196,46.757103 302.538940,47.507374 302.747589,47.720448 
	C306.070618,51.114349 303.606903,53.934502 301.761108,56.515785 
	C304.124542,58.115314 306.164734,59.632328 308.350159,60.898674 
	C309.080872,61.322105 310.215546,60.978088 311.107544,61.209011 
	C312.685791,61.617607 315.257446,61.847214 315.570709,62.774315 
	C316.397156,65.220375 316.751465,68.681412 313.008820,69.046097 
	C309.447388,69.393120 305.773651,68.587692 301.595428,68.243301 
	C303.358246,71.840439 305.316925,75.675827 307.112488,79.586128 
	C307.766907,81.011238 308.351837,82.601410 308.415802,84.139259 
	C308.599548,88.558372 309.169525,89.000626 314.273743,87.960098 
	C312.922974,89.571922 311.719208,91.344223 310.181946,92.752495 
	C308.491333,94.301277 303.931458,93.775238 305.940979,97.791496 
	C306.828461,99.565147 309.542816,100.424698 311.914459,102.028313 
	C311.914459,103.726112 312.291473,106.683121 311.758575,109.465874 
	C311.483978,110.899788 309.722473,112.192360 308.389099,113.237968 
	C307.165222,114.197746 305.614075,114.740273 304.207123,115.466629 
	C305.429962,117.596916 306.300964,120.082512 307.983551,121.748459 
	C309.406250,123.157104 311.769012,123.616280 313.800995,124.534172 
	C311.103577,129.737076 304.778259,132.437759 308.077362,138.889481 
	C307.124146,139.891602 306.159058,140.906158 305.377930,141.727341 
	C306.060760,146.505768 316.783661,141.692444 312.770477,150.896912 
	C311.340271,149.295212 310.227234,148.048676 309.184692,146.881134 
	C308.066559,152.599503 306.960663,158.255310 305.881439,163.774567 
	C307.869995,166.229416 310.867279,168.858932 312.439148,172.165985 
	C314.066498,175.589828 314.333740,179.639969 310.350586,182.424133 
	C309.277222,183.174423 308.529083,184.378403 307.485443,185.184875 
	C303.102509,188.571762 304.162598,191.768921 308.012024,195.284164 
	C308.662231,193.684769 309.237701,192.269165 309.923553,190.581985 
	C313.485992,191.253021 314.165344,193.114182 313.342865,196.329605 
	C312.657745,199.007950 312.090210,201.876770 312.309296,204.593597 
	C312.810364,210.808182 311.855896,211.804382 305.461151,210.536682 
	C305.026031,210.450424 304.540070,210.620590 303.347260,210.751923 
	C304.356445,211.690445 304.888855,212.625092 305.559784,212.738174 
	C309.892303,213.468491 311.906555,215.445816 311.307007,220.260468 
	C311.089600,222.006409 313.152832,224.036316 314.364502,226.287994 
	C312.052032,227.995514 309.219269,229.664597 306.983521,231.924377 
	C305.936340,232.982834 306.041382,235.181290 305.624237,236.863098 
	C307.175018,236.960358 308.725830,237.057602 310.638306,237.077423 
	C311.000000,237.000000 311.000000,236.999390 311.000000,236.999390 
	C309.802948,239.538498 308.605896,242.077591 306.930267,245.631836 
	C306.839600,246.549713 306.615906,248.724091 306.413116,250.900421 
	C306.286865,252.255371 306.192322,253.613297 306.083557,254.969879 
	C307.572418,254.852615 309.081818,254.844833 310.541412,254.571381 
	C311.259003,254.436951 311.884399,253.810425 313.456604,253.953018 
	C313.043762,254.967407 312.483917,255.949188 312.250214,257.003296 
	C311.832001,258.889679 310.667847,261.506470 311.472382,262.610443 
	C314.663513,266.989349 312.530670,268.796997 308.283173,269.744446 
	C310.001617,273.658600 311.482971,277.032715 313.128845,280.781616 
	C310.110016,281.364227 307.721680,281.825134 305.333313,282.286072 
	C305.352692,282.753723 305.372040,283.221375 305.391418,283.689026 
	C306.593353,284.422089 307.795288,285.155121 308.617737,285.656738 
	C306.731537,291.174866 304.877899,296.565582 303.057678,301.967560 
	C302.851746,302.578735 302.509735,303.587402 302.778168,303.848053 
	C306.297729,307.265869 303.247070,310.020660 301.320129,313.417786 
	C306.158478,313.030731 308.359680,319.642334 313.640228,316.572784 
	C313.806091,316.476349 315.821381,318.406006 315.733978,319.264923 
	C315.539154,321.179565 315.018311,324.136230 313.797516,324.636658 
	C311.584412,325.543854 308.744324,325.170685 306.204346,324.928772 
	C304.881256,324.802765 303.640045,323.816925 302.108368,323.101013 
	C302.867615,327.163391 303.515594,330.630371 303.666260,334.492432 
	C295.119659,333.322388 287.077606,331.718597 279.018646,330.205048 
	C273.002716,329.075134 266.986145,327.917297 260.932587,327.025085 
	C246.189240,324.852081 231.448532,322.630249 216.661072,320.796448 
	C201.879013,318.963348 187.044693,317.546631 172.226898,316.009033 
	C164.823288,315.240753 157.405396,314.609955 149.998566,313.524536 
	C150.942169,311.365479 152.013412,309.653870 152.778183,307.814789 
	C153.385651,306.354034 154.006607,304.716888 153.926514,303.194611 
	C153.805038,300.885834 153.080719,298.608826 152.510406,295.818878 
	C151.559952,295.350525 150.030792,294.596985 148.373138,293.780151 
	C151.961914,290.138580 152.755829,283.727020 149.880630,279.068115 
	C147.356293,274.977722 148.548218,271.677460 151.292557,268.698761 
	C154.682022,265.019867 155.036880,261.798615 151.859207,257.777954 
	C151.085587,256.799072 150.224411,255.889465 149.245667,254.767014 
	C150.917313,253.547470 152.183136,252.623978 153.027725,252.007812 
	C151.970154,249.225952 150.655685,246.945084 150.294800,244.522171 
	C149.840012,241.468857 149.917847,238.275162 150.223877,235.187393 
	C150.507507,232.325607 151.459457,229.535889 151.994781,226.691406 
	C152.427612,224.391571 153.757111,221.394531 152.813568,219.859344 
	C149.617020,214.658585 151.048660,210.409210 153.294312,205.378784 
	C155.781006,199.808426 155.533722,193.662445 153.343124,187.777817 
	C152.497955,185.507446 150.422287,182.422043 151.218903,181.069000 
	C153.088028,177.894363 151.637360,175.769028 150.706390,173.150696 
	C149.246780,169.045486 147.767822,164.956940 151.987289,161.208145 
	C152.762268,160.519608 152.149200,157.885696 151.696289,156.285782 
	C150.973679,153.733093 149.327042,151.353775 149.035446,148.791428 
	C148.728058,146.090179 150.468430,142.968964 149.698151,140.544693 
	C147.862137,134.766296 150.560516,130.999161 155.398636,126.537399 
	C152.327637,126.800003 150.692825,126.939796 147.645126,127.200409 
	C148.936020,124.892204 149.793335,123.388260 150.622650,121.869019 
	C151.629242,120.024979 153.874176,117.688263 153.384628,116.400589 
	C151.376480,111.118309 151.309113,106.506958 156.780243,101.984444 
	C150.419754,100.490044 151.029297,96.300575 151.592560,92.542900 
	C152.145752,88.852295 148.102097,83.981270 154.136734,81.493324 
	C154.299606,81.426178 153.901733,80.018707 153.778290,79.234222 
	C152.546982,71.409904 151.187958,63.601032 150.230865,55.743240 
	C150.088745,54.576347 152.020889,53.260548 152.673935,51.864227 
	C153.342545,50.434593 154.037430,48.802277 153.968842,47.292847 
	C153.864075,44.987759 153.113144,42.712029 152.505432,39.794361 
	C151.629242,39.371544 150.076385,38.622196 148.425674,37.825623 
	C151.930283,34.091217 152.725250,27.747099 149.946152,23.156307 
	C147.228134,18.666473 148.421692,14.973717 152.042557,12.236922 
	C154.626907,10.283552 154.801926,8.542071 153.861145,5.886662 
	C153.316376,4.349081 153.270432,2.634774 153.000000,1.000000 
	C205.354233,1.000000 257.708466,1.000000 310.531342,1.000000 
M302.843201,225.024445 
	C302.167603,225.119995 301.492035,225.215546 300.816437,225.311096 
	C301.709900,226.408127 302.603333,227.505157 303.496796,228.602173 
	C303.866638,228.353806 304.236481,228.105438 304.606323,227.857071 
	C304.183990,227.013702 303.761658,226.170334 302.843201,225.024445 
M303.725342,110.076607 
	C303.903717,110.045670 304.082092,110.014725 304.260468,109.983780 
	C304.085175,109.940628 303.909882,109.897469 303.725342,110.076607 
z"/>
<path fill="#88247F" opacity="1.000000" stroke="none" 
	d="
M152.531342,1.000000 
	C153.270432,2.634774 153.316376,4.349081 153.861145,5.886662 
	C154.801926,8.542071 154.626907,10.283552 152.042557,12.236922 
	C148.421692,14.973717 147.228134,18.666473 149.946152,23.156307 
	C152.725250,27.747099 151.930283,34.091217 148.425674,37.825623 
	C150.076385,38.622196 151.629242,39.371544 152.505432,39.794361 
	C153.113144,42.712029 153.864075,44.987759 153.968842,47.292847 
	C154.037430,48.802277 153.342545,50.434593 152.673935,51.864227 
	C152.020889,53.260548 150.088745,54.576347 150.230865,55.743240 
	C151.187958,63.601032 152.546982,71.409904 153.778290,79.234222 
	C153.901733,80.018707 154.299606,81.426178 154.136734,81.493324 
	C148.102097,83.981270 152.145752,88.852295 151.592560,92.542900 
	C151.029297,96.300575 150.419754,100.490044 156.780243,101.984444 
	C151.309113,106.506958 151.376480,111.118309 153.384628,116.400589 
	C153.874176,117.688263 151.629242,120.024979 150.622650,121.869019 
	C149.793335,123.388260 148.936020,124.892204 147.645126,127.200409 
	C150.692825,126.939796 152.327637,126.800003 155.398636,126.537399 
	C150.560516,130.999161 147.862137,134.766296 149.698151,140.544693 
	C150.468430,142.968964 148.728058,146.090179 149.035446,148.791428 
	C149.327042,151.353775 150.973679,153.733093 151.696289,156.285782 
	C152.149200,157.885696 152.762268,160.519608 151.987289,161.208145 
	C147.767822,164.956940 149.246780,169.045486 150.706390,173.150696 
	C151.637360,175.769028 153.088028,177.894363 151.218903,181.069000 
	C150.422287,182.422043 152.497955,185.507446 153.343124,187.777817 
	C155.533722,193.662445 155.781006,199.808426 153.294312,205.378784 
	C151.048660,210.409210 149.617020,214.658585 152.813568,219.859344 
	C153.757111,221.394531 152.427612,224.391571 151.994781,226.691406 
	C151.459457,229.535889 150.507507,232.325607 150.223877,235.187393 
	C149.917847,238.275162 149.840012,241.468857 150.294800,244.522171 
	C150.655685,246.945084 151.970154,249.225952 153.027725,252.007812 
	C152.183136,252.623978 150.917313,253.547470 149.245667,254.767014 
	C150.224411,255.889465 151.085587,256.799072 151.859207,257.777954 
	C155.036880,261.798615 154.682022,265.019867 151.292557,268.698761 
	C148.548218,271.677460 147.356293,274.977722 149.880630,279.068115 
	C152.755829,283.727020 151.961914,290.138580 148.373138,293.780151 
	C150.030792,294.596985 151.559952,295.350525 152.510406,295.818878 
	C153.080719,298.608826 153.805038,300.885834 153.926514,303.194611 
	C154.006607,304.716888 153.385651,306.354034 152.778183,307.814789 
	C152.013412,309.653870 150.942169,311.365479 149.552856,313.564789 
	C146.711182,314.008728 144.319763,314.019928 141.608063,314.014465 
	C140.865021,313.935944 140.442245,313.874115 139.757141,313.603760 
	C128.338333,307.106354 117.063103,301.017914 106.047890,294.490662 
	C74.425560,275.752289 45.410572,253.587204 19.229744,227.748581 
	C13.193650,221.791367 7.078680,215.914062 1.000001,210.000000 
	C1.000000,140.417831 1.000000,70.835663 1.000000,1.000000 
	C51.353943,1.000000 101.708313,1.000000 152.531342,1.000000 
M149.274780,193.923386 
	C149.096344,193.954330 148.917923,193.985275 148.739487,194.016220 
	C148.914841,194.059402 149.090210,194.102585 149.274780,193.923386 
z"/>
<path fill="#150E0A" opacity="1.000000" stroke="none" 
	d="
M140.019485,313.812317 
	C140.442245,313.874115 140.865021,313.935944 141.760742,314.338867 
	C151.149841,318.620361 159.922897,322.933319 169.011795,326.423798 
	C188.110764,333.758514 207.462097,340.458344 227.691483,343.965240 
	C241.349014,346.332916 255.129074,347.990509 268.837128,350.078644 
	C269.637054,350.200500 270.282593,351.336151 271.000000,352.000000 
	C180.999985,352.000000 90.999977,352.000000 1.000000,352.000000 
	C1.000000,343.245056 1.000000,334.591187 1.410691,325.462219 
	C13.001526,322.902222 24.115568,320.303009 35.377640,318.855499 
	C51.409554,316.794983 67.519920,314.896942 83.652252,314.182831 
	C102.410049,313.352539 121.227768,313.876251 140.019485,313.812317 
z"/>
<path fill="#150E0A" opacity="1.000000" stroke="none" 
	d="
M565.108276,314.078735 
	C565.278442,314.045746 565.448669,314.012726 566.321167,313.965210 
	C597.305664,314.357361 627.657898,312.661316 657.809265,316.996765 
	C666.693176,318.274170 675.608032,319.357269 684.463135,320.807861 
	C691.677368,321.989655 698.823608,323.586945 706.000000,325.000000 
	C706.000000,333.986725 706.000000,342.973450 706.000000,352.000000 
	C616.312439,352.000000 526.624878,352.000000 436.464630,351.581299 
	C440.910217,350.442993 445.838654,349.785614 450.744232,348.987976 
	C456.839172,347.996948 462.915253,346.889923 469.413147,345.884949 
	C470.325897,345.936737 470.856689,346.049835 471.319550,345.920227 
	C490.974701,340.416138 510.817566,335.483398 530.202393,329.149200 
	C542.198303,325.229370 553.496704,319.174927 565.108276,314.078735 
z"/>
<path fill="#CB6FB2" opacity="1.000000" stroke="none" 
	d="
M706.000000,324.531342 
	C698.823608,323.586945 691.677368,321.989655 684.463135,320.807861 
	C675.608032,319.357269 666.693176,318.274170 657.809265,316.996765 
	C627.657898,312.661316 597.305664,314.357361 566.566406,313.878326 
	C579.461975,306.302002 593.065613,299.207825 606.118958,291.214996 
	C641.254456,269.700867 673.007935,243.922058 701.431030,214.069550 
	C702.691956,212.745193 704.062622,211.525253 705.691040,210.128326 
	C706.000000,248.020889 706.000000,286.041779 706.000000,324.531342 
z"/>
<path fill="#670F6F" opacity="1.000000" stroke="none" 
	d="
M139.757141,313.603760 
	C121.227768,313.876251 102.410049,313.352539 83.652252,314.182831 
	C67.519920,314.896942 51.409554,316.794983 35.377640,318.855499 
	C24.115568,320.303009 13.001526,322.902222 1.410691,324.993591 
	C1.000000,286.979095 1.000000,248.958206 1.000001,210.468658 
	C7.078680,215.914062 13.193650,221.791367 19.229744,227.748581 
	C45.410572,253.587204 74.425560,275.752289 106.047890,294.490662 
	C117.063103,301.017914 128.338333,307.106354 139.757141,313.603760 
z"/>
<path fill="#D66EB2" opacity="1.000000" stroke="none" 
	d="
M271.468658,352.000000 
	C270.282593,351.336151 269.637054,350.200500 268.837128,350.078644 
	C255.129074,347.990509 241.349014,346.332916 227.691483,343.965240 
	C207.462097,340.458344 188.110764,333.758514 169.011795,326.423798 
	C159.922897,322.933319 151.149841,318.620361 142.081039,314.355591 
	C144.319763,314.019928 146.711182,314.008728 149.548279,313.957214 
	C157.405396,314.609955 164.823288,315.240753 172.226898,316.009033 
	C187.044693,317.546631 201.879013,318.963348 216.661072,320.796448 
	C231.448532,322.630249 246.189240,324.852081 260.932587,327.025085 
	C266.986145,327.917297 273.002716,329.075134 279.018646,330.205048 
	C287.077606,331.718597 295.119659,333.322388 303.579163,334.840485 
	C312.998291,336.874512 322.008331,338.950439 331.015656,341.038147 
	C337.779846,342.605896 344.540558,344.188660 351.464111,346.263947 
	C341.951874,347.850616 332.274445,348.906158 322.614227,350.101318 
	C322.007172,350.176422 321.534973,351.341827 321.000000,352.000000 
	C304.645782,352.000000 288.291534,352.000000 271.468658,352.000000 
z"/>
<path fill="#7A1774" opacity="1.000000" stroke="none" 
	d="
M468.999481,345.833008 
	C462.915253,346.889923 456.839172,347.996948 450.744232,348.987976 
	C445.838654,349.785614 440.910217,350.442993 435.995972,351.581299 
	C435.555542,352.000000 435.111115,352.000000 434.064789,351.672974 
	C418.857697,351.256531 404.252472,351.156952 389.647095,351.116943 
	C389.098877,351.115448 388.549072,351.692535 388.000000,352.000000 
	C387.555542,352.000000 387.111115,352.000000 386.339233,351.583008 
	C384.343628,350.775604 382.692383,350.277191 381.004486,350.013000 
	C372.312347,348.652222 363.610748,347.351654 354.912476,346.030090 
	C377.923004,341.019409 400.879364,335.739380 423.963989,331.097168 
	C438.252869,328.223724 452.736755,326.319763 467.566223,324.417572 
	C468.020721,331.862213 463.684357,339.077667 468.999481,345.833008 
z"/>
<path fill="#150E0A" opacity="1.000000" stroke="none" 
	d="
M354.551697,346.013000 
	C363.610748,347.351654 372.312347,348.652222 381.004486,350.013000 
	C382.692383,350.277191 384.343628,350.775604 386.005890,351.583008 
	C364.645782,352.000000 343.291534,352.000000 321.468658,352.000000 
	C321.534973,351.341827 322.007172,350.176422 322.614227,350.101318 
	C332.274445,348.906158 341.951874,347.850616 351.823761,346.404449 
	C352.745056,346.029144 353.467987,346.012573 354.551697,346.013000 
z"/>
<path fill="#150E0A" opacity="1.000000" stroke="none" 
	d="
M388.468658,352.000000 
	C388.549072,351.692535 389.098877,351.115448 389.647095,351.116943 
	C404.252472,351.156952 418.857697,351.256531 433.731445,351.672974 
	C418.979095,352.000000 403.958221,352.000000 388.468658,352.000000 
z"/>
<path fill="#7D1A75" opacity="1.000000" stroke="none" 
	d="
M469.413147,345.884949 
	C463.684357,339.077667 468.020721,331.862213 467.999329,324.415283 
	C472.109833,323.127045 476.220337,322.278015 480.664185,321.241272 
	C481.747131,321.028290 482.496765,321.002960 484.022095,320.977783 
	C485.866913,320.949677 486.936005,320.921478 488.005096,320.893311 
	C502.652618,319.262054 517.281372,317.429321 531.953857,316.066803 
	C542.667053,315.071899 553.437744,314.696198 564.645508,314.061584 
	C553.496704,319.174927 542.198303,325.229370 530.202393,329.149200 
	C510.817566,335.483398 490.974701,340.416138 471.319550,345.920227 
	C470.856689,346.049835 470.325897,345.936737 469.413147,345.884949 
z"/>
<path fill="#8F2E81" opacity="1.000000" stroke="none" 
	d="
M487.863770,320.623474 
	C486.936005,320.921478 485.866913,320.949677 484.396759,320.964539 
	C485.237946,320.751984 486.480194,320.552826 487.863770,320.623474 
z"/>
<path fill="#8F2E81" opacity="1.000000" stroke="none" 
	d="
M479.782471,273.161774 
	C479.864685,272.987488 480.020416,272.894989 480.176147,272.802490 
	C480.069427,272.949524 479.962708,273.096558 479.782471,273.161774 
z"/>
<path fill="#8F2E81" opacity="1.000000" stroke="none" 
	d="
M481.729828,282.965424 
	C481.909790,282.897430 482.085114,282.940582 482.260468,282.983734 
	C482.082062,283.014679 481.903625,283.045624 481.729828,282.965424 
z"/>
<path fill="#8F2E81" opacity="1.000000" stroke="none" 
	d="
M479.838135,301.782532 
	C480.012451,301.864716 480.105011,302.020447 480.197571,302.176178 
	C480.050537,302.069489 479.903442,301.962799 479.838135,301.782532 
z"/>
<path fill="#8F2E81" opacity="1.000000" stroke="none" 
	d="
M476.161865,143.217453 
	C475.987518,143.135269 475.894989,142.979523 475.802429,142.823792 
	C475.949524,142.930496 476.096588,143.037201 476.161865,143.217453 
z"/>
<path fill="#8F2E81" opacity="1.000000" stroke="none" 
	d="
M481.034546,76.729919 
	C481.102509,76.909843 481.059357,77.085159 481.016205,77.260475 
	C480.985260,77.082085 480.954346,76.903687 481.034546,76.729919 
z"/>
<path fill="#8F2E81" opacity="1.000000" stroke="none" 
	d="
M479.782562,46.161812 
	C479.864746,45.987484 480.020508,45.894947 480.176270,45.802422 
	C480.069550,45.949482 479.962830,46.096542 479.782562,46.161812 
z"/>
<path fill="#8F2E81" opacity="1.000000" stroke="none" 
	d="
M482.217438,26.838188 
	C482.135254,27.012514 481.979523,27.105047 481.823792,27.197571 
	C481.930481,27.050508 482.037170,26.903452 482.217438,26.838188 
z"/>
<path fill="#8F2E81" opacity="1.000000" stroke="none" 
	d="
M480.161804,17.217484 
	C479.987488,17.135290 479.894958,16.979555 479.802429,16.823826 
	C479.949463,16.930534 480.096527,17.037237 480.161804,17.217484 
z"/>
<path fill="#8B2880" opacity="1.000000" stroke="none" 
	d="
M311.000000,237.000305 
	C311.510162,236.214325 312.020325,235.428040 312.530487,234.641754 
	C312.784943,234.853760 313.039368,235.065781 313.293823,235.277786 
	C312.712921,235.805191 312.132019,236.332596 311.275574,236.929688 
	C311.000000,236.999390 311.000000,237.000000 311.000000,237.000305 
z"/>
<path fill="#8F2E81" opacity="1.000000" stroke="none" 
	d="
M303.091248,225.175705 
	C303.761658,226.170334 304.183990,227.013702 304.606323,227.857071 
	C304.236481,228.105438 303.866638,228.353806 303.496796,228.602173 
	C302.603333,227.505157 301.709900,226.408127 300.816437,225.311096 
	C301.492035,225.215546 302.167603,225.119995 303.091248,225.175705 
z"/>
<path fill="#8F2E81" opacity="1.000000" stroke="none" 
	d="
M303.729980,109.965462 
	C303.909882,109.897469 304.085175,109.940628 304.260468,109.983780 
	C304.082092,110.014725 303.903717,110.045670 303.729980,109.965462 
z"/>
<path fill="#8B2880" opacity="1.000000" stroke="none" 
	d="
M149.270172,194.034576 
	C149.090210,194.102585 148.914841,194.059402 148.739487,194.016220 
	C148.917923,193.985275 149.096344,193.954330 149.270172,194.034576 
z"/>
</svg>