<svg width="45" height="45" viewBox="0 0 45 45" fill="none" xmlns="http://www.w3.org/2000/svg">
<circle cx="22.5" cy="22.5" r="22.5" fill="url(#paint0_linear_4_1156)"/>
<path d="M31.8985 21.3516C32.0586 20.9336 32.1485 20.4766 32.1485 20C32.1485 17.9297 30.4688 16.25 28.3985 16.25C27.6289 16.25 26.9102 16.4844 26.3164 16.8828C25.2344 15.0078 23.2149 13.75 20.8985 13.75C17.4453 13.75 14.6485 16.5469 14.6485 20C14.6485 20.1055 14.6524 20.2109 14.6563 20.3164C12.4688 21.0859 10.8985 23.1719 10.8985 25.625C10.8985 28.7305 13.418 31.25 16.5235 31.25H30.8985C33.6602 31.25 35.8985 29.0117 35.8985 26.25C35.8985 23.832 34.1797 21.8125 31.8985 21.3516ZM26.707 24.8164L22.5899 28.9336C22.3477 29.1758 21.9492 29.1758 21.707 28.9336L17.5899 24.8164C17.1953 24.4219 17.4766 23.75 18.0313 23.75H20.586V19.375C20.586 19.0312 20.8672 18.75 21.211 18.75H23.086C23.4297 18.75 23.711 19.0312 23.711 19.375V23.75H26.2656C26.8203 23.75 27.1016 24.4219 26.707 24.8164V24.8164Z" fill="white"/>
<defs>
<linearGradient id="paint0_linear_4_1156" x1="22.5" y1="0" x2="22.5" y2="45" gradientUnits="userSpaceOnUse">
<stop stop-color="#00D1FF"/>
<stop offset="1" stop-color="#8D00B0"/>
</linearGradient>
</defs>
</svg>
