<svg width="45" height="45" viewBox="0 0 45 45" fill="none" xmlns="http://www.w3.org/2000/svg">
<circle cx="22.5" cy="22.5" r="22.5" fill="url(#paint0_linear_4_1158)"/>
<path d="M9.9 30.5001V32.585C9.9 34.3087 14.0992 35.71 19.275 35.71C24.4508 35.71 28.65 34.3087 28.65 32.585V30.5001C26.6334 31.921 22.9469 32.585 19.275 32.585C15.6031 32.585 11.9166 31.921 9.9 30.5001ZM25.525 16.96C30.7008 16.96 34.9 15.5587 34.9 13.835C34.9 12.1114 30.7008 10.71 25.525 10.71C20.3492 10.71 16.15 12.1114 16.15 13.835C16.15 15.5587 20.3492 16.96 25.525 16.96ZM9.9 25.378V27.8975C9.9 29.6212 14.0992 31.0225 19.275 31.0225C24.4508 31.0225 28.65 29.6212 28.65 27.8975V25.378C26.6334 27.0381 22.942 27.8975 19.275 27.8975C15.608 27.8975 11.9166 27.0381 9.9 25.378ZM30.2125 25.9151C33.0104 25.3731 34.9 24.3672 34.9 23.21V21.1251C33.7672 21.9258 32.1022 22.4727 30.2125 22.8096V25.9151ZM19.275 18.5225C14.0992 18.5225 9.9 20.2706 9.9 22.4288C9.9 24.587 14.0992 26.335 19.275 26.335C24.4508 26.335 28.65 24.587 28.65 22.4288C28.65 20.2706 24.4508 18.5225 19.275 18.5225ZM29.983 21.2715C32.9127 20.7442 34.9 19.709 34.9 18.5225V16.4376C33.1666 17.6631 30.1881 18.3223 27.0533 18.4786C28.4938 19.1768 29.5533 20.1143 29.983 21.2715Z" fill="white"/>
<defs>
<linearGradient id="paint0_linear_4_1158" x1="22.5" y1="0" x2="22.5" y2="45" gradientUnits="userSpaceOnUse">
<stop stop-color="#5200FF"/>
<stop offset="0.565963" stop-color="#A800FF"/>
<stop offset="1" stop-color="#EB00FF"/>
</linearGradient>
</defs>
</svg>
