<svg width="45" height="45" viewBox="0 0 45 45" fill="none" xmlns="http://www.w3.org/2000/svg">
<circle cx="22.5" cy="22.5" r="22.5" fill="url(#paint0_linear_4_1154)"/>
<path d="M28.954 17.4297C28.954 13.5929 24.9132 10.4852 19.9262 10.4852C14.9393 10.4852 10.8985 13.5929 10.8985 17.4297C10.8985 18.9184 11.5104 20.2899 12.5478 21.4227C11.9662 22.7335 11.007 23.7752 10.9939 23.7882C10.8985 23.888 10.8724 24.0356 10.9288 24.1658C10.9853 24.296 11.1068 24.3741 11.2457 24.3741C12.8342 24.3741 14.1493 23.8403 15.0955 23.289C16.4931 23.9705 18.1467 24.3741 19.9262 24.3741C24.9132 24.3741 28.954 21.2665 28.954 17.4297ZM34.2491 26.9783C35.2865 25.8498 35.8985 24.4739 35.8985 22.9852C35.8985 20.0816 33.5764 17.5946 30.2865 16.5573C30.3255 16.8437 30.3429 17.1345 30.3429 17.4297C30.3429 22.026 25.6684 25.763 19.9262 25.763C19.4575 25.763 19.0018 25.7283 18.5504 25.6805C19.9176 28.1762 23.1294 29.9297 26.8707 29.9297C28.6502 29.9297 30.3038 29.5304 31.7014 28.8446C32.6476 29.3958 33.9627 29.9297 35.5512 29.9297C35.6901 29.9297 35.816 29.8472 35.8681 29.7213C35.9245 29.5955 35.8985 29.4479 35.803 29.3437C35.7899 29.3307 34.8307 28.2934 34.2491 26.9783Z" fill="white"/>
<defs>
<linearGradient id="paint0_linear_4_1154" x1="22.5" y1="0" x2="22.5" y2="45" gradientUnits="userSpaceOnUse">
<stop stop-color="#EF32E7"/>
<stop offset="1" stop-color="#8300B0"/>
</linearGradient>
</defs>
</svg>
