<svg width="23" height="26" viewBox="0 0 23 26" fill="none" xmlns="http://www.w3.org/2000/svg">
<path d="M22.4776 3.94558V6.17771C22.4776 8.1448 17.5785 9.74915 11.5401 9.74915C5.50169 9.74915 0.602615 8.1448 0.602615 6.17771V3.94558C0.602615 1.97849 5.50169 0.374146 11.5401 0.374146C17.5785 0.374146 22.4776 1.97849 22.4776 3.94558ZM22.4776 8.9679V13.9902C22.4776 15.9573 17.5785 17.5616 11.5401 17.5616C5.50169 17.5616 0.602615 15.9573 0.602615 13.9902V8.9679C2.95247 10.5862 7.2534 11.3396 11.5401 11.3396C15.8268 11.3396 20.1277 10.5862 22.4776 8.9679ZM22.4776 16.7804V21.8027C22.4776 23.7698 17.5785 25.3741 11.5401 25.3741C5.50169 25.3741 0.602615 23.7698 0.602615 21.8027V16.7804C2.95247 18.3987 7.2534 19.1521 11.5401 19.1521C15.8268 19.1521 20.1277 18.3987 22.4776 16.7804Z" fill="url(#paint0_linear_6_7)"/>
<defs>
<linearGradient id="paint0_linear_6_7" x1="11.5401" y1="0.374146" x2="11.5401" y2="25.3741" gradientUnits="userSpaceOnUse">
<stop stop-color="#00D1FF"/>
<stop offset="1" stop-color="#EB00FF"/>
</linearGradient>
</defs>
</svg>
