<svg width="19" height="26" viewBox="0 0 19 26" fill="none" xmlns="http://www.w3.org/2000/svg">
<path d="M18.92 7.4054C18.92 5.24719 17.172 3.49915 15.0137 3.49915C12.8555 3.49915 11.1075 5.24719 11.1075 7.4054C11.1075 9.18274 12.294 10.6818 13.9151 11.1554C13.8858 11.9415 13.71 12.547 13.378 12.9572C12.6261 13.8947 10.9708 14.0509 9.21785 14.212C7.8409 14.339 6.41512 14.4757 5.24812 15.0372V8.00598C6.83504 7.50793 7.9825 6.02844 7.9825 4.2804C7.9825 2.12219 6.23445 0.374146 4.07625 0.374146C1.91805 0.374146 0.169998 2.12219 0.169998 4.2804C0.169998 6.02844 1.31746 7.50793 2.90437 8.00598V17.7374C1.31746 18.2404 0.169998 19.7198 0.169998 21.4679C0.169998 23.6261 1.91805 25.3741 4.07625 25.3741C6.23445 25.3741 7.9825 23.6261 7.9825 21.4679C7.9825 19.8077 6.94734 18.3868 5.4825 17.8253C5.63387 17.5714 5.86336 17.3468 6.21004 17.171C7.00105 16.7706 8.18269 16.6632 9.43758 16.546C11.4981 16.3556 13.8321 16.1359 15.2091 14.4269C15.8927 13.5773 16.2393 12.4835 16.2637 11.1114C17.8067 10.5841 18.92 9.12415 18.92 7.4054ZM4.07625 3.49915C4.50594 3.49915 4.8575 3.85071 4.8575 4.2804C4.8575 4.71008 4.50594 5.06165 4.07625 5.06165C3.64656 5.06165 3.295 4.71008 3.295 4.2804C3.295 3.85071 3.64656 3.49915 4.07625 3.49915ZM4.07625 22.2491C3.64656 22.2491 3.295 21.8976 3.295 21.4679C3.295 21.0382 3.64656 20.6866 4.07625 20.6866C4.50594 20.6866 4.8575 21.0382 4.8575 21.4679C4.8575 21.8976 4.50594 22.2491 4.07625 22.2491ZM15.0137 6.62415C15.4434 6.62415 15.795 6.97571 15.795 7.4054C15.795 7.83508 15.4434 8.18665 15.0137 8.18665C14.5841 8.18665 14.2325 7.83508 14.2325 7.4054C14.2325 6.97571 14.5841 6.62415 15.0137 6.62415Z" fill="url(#paint0_linear_6_9)"/>
<defs>
<linearGradient id="paint0_linear_6_9" x1="9.545" y1="0.374146" x2="9.545" y2="25.3741" gradientUnits="userSpaceOnUse">
<stop stop-color="#EB00FF"/>
<stop offset="1" stop-color="#8D00B0"/>
</linearGradient>
</defs>
</svg>
