<svg width="26" height="21" viewBox="0 0 26 21" fill="none" xmlns="http://www.w3.org/2000/svg">
<path d="M20.2552 8.43335L19.9348 8.99195C19.8177 9.19898 19.5677 9.28492 19.345 9.20289C18.8841 9.03101 18.4622 8.78492 18.0911 8.47632C17.9114 8.32789 17.8645 8.06617 17.9817 7.86304L18.302 7.30445C18.0325 6.99195 17.8216 6.62867 17.6809 6.23414H17.0364C16.802 6.23414 16.5989 6.06617 16.5598 5.83179C16.4817 5.36304 16.4778 4.87085 16.5598 4.38257C16.5989 4.1482 16.802 3.97632 17.0364 3.97632H17.6809C17.8216 3.58179 18.0325 3.21851 18.302 2.90601L17.9817 2.34742C17.8645 2.14429 17.9075 1.88257 18.0911 1.73414C18.4622 1.42554 18.888 1.17945 19.345 1.00757C19.5677 0.925542 19.8177 1.01148 19.9348 1.21851L20.2552 1.7771C20.6653 1.70289 21.0833 1.70289 21.4934 1.7771L21.8138 1.21851C21.9309 1.01148 22.1809 0.925542 22.4036 1.00757C22.8645 1.17945 23.2864 1.42554 23.6575 1.73414C23.8372 1.88257 23.8841 2.14429 23.7669 2.34742L23.4466 2.90601C23.7161 3.21851 23.927 3.58179 24.0677 3.97632H24.7122C24.9466 3.97632 25.1497 4.14429 25.1888 4.37867C25.2669 4.84742 25.2708 5.3396 25.1888 5.82789C25.1497 6.06226 24.9466 6.23414 24.7122 6.23414H24.0677C23.927 6.62867 23.7161 6.99195 23.4466 7.30445L23.7669 7.86304C23.8841 8.06617 23.8411 8.32789 23.6575 8.47632C23.2864 8.78492 22.8606 9.03101 22.4036 9.20289C22.1809 9.28492 21.9309 9.19898 21.8138 8.99195L21.4934 8.43335C21.0872 8.50757 20.6653 8.50757 20.2552 8.43335V8.43335ZM19.845 6.13648C21.3489 7.29273 23.0638 5.57789 21.9075 4.07398C20.4036 2.91382 18.6888 4.63257 19.845 6.13648V6.13648ZM15.3411 12.1482L16.6575 12.8044C17.052 13.031 17.2239 13.5115 17.0677 13.9412C16.72 14.8865 16.0364 15.7537 15.4036 16.5115C15.1145 16.8591 14.6145 16.9451 14.22 16.7185L13.0833 16.0623C12.4583 16.5974 11.7317 17.0232 10.9388 17.3005V18.613C10.9388 19.0662 10.6145 19.4568 10.1692 19.5349C9.20828 19.699 8.20047 19.7068 7.20438 19.5349C6.75516 19.4568 6.42313 19.0701 6.42313 18.613V17.3005C5.63016 17.0193 4.9036 16.5974 4.2786 16.0623L3.14188 16.7146C2.75125 16.9412 2.24735 16.8552 1.95828 16.5076C1.32547 15.7498 0.657502 14.8826 0.309846 13.9412C0.153596 13.5154 0.325471 13.0349 0.720002 12.8044L2.02078 12.1482C1.86844 11.3318 1.86844 10.4919 2.02078 9.67164L0.720002 9.01148C0.325471 8.78492 0.149689 8.30445 0.309846 7.87867C0.657502 6.93335 1.32547 6.06617 1.95828 5.30835C2.24735 4.9607 2.74735 4.87476 3.14188 5.10132L4.2786 5.75757C4.9036 5.22242 5.63016 4.79664 6.42313 4.51929V3.20289C6.42313 2.75367 6.74344 2.36304 7.18875 2.28492C8.14969 2.12085 9.16141 2.11304 10.1575 2.28101C10.6067 2.35914 10.9388 2.74585 10.9388 3.20289V4.51539C11.7317 4.79664 12.4583 5.21851 13.0833 5.75367L14.22 5.09742C14.6106 4.87085 15.1145 4.95679 15.4036 5.30445C16.0364 6.06226 16.7005 6.92945 17.0481 7.87476C17.2044 8.30054 17.052 8.78101 16.6575 9.01148L15.3411 9.66773C15.4934 10.488 15.4934 11.3279 15.3411 12.1482V12.1482ZM10.7473 12.9724C13.0598 9.9646 9.62625 6.53101 6.61844 8.84351C4.30594 11.8513 7.73953 15.2849 10.7473 12.9724ZM20.2552 20.1091L19.9348 20.6677C19.8177 20.8748 19.5677 20.9607 19.345 20.8787C18.8841 20.7068 18.4622 20.4607 18.0911 20.1521C17.9114 20.0037 17.8645 19.7419 17.9817 19.5388L18.302 18.9802C18.0325 18.6677 17.8216 18.3044 17.6809 17.9099H17.0364C16.802 17.9099 16.5989 17.7419 16.5598 17.5076C16.4817 17.0388 16.4778 16.5466 16.5598 16.0584C16.5989 15.824 16.802 15.6521 17.0364 15.6521H17.6809C17.8216 15.2576 18.0325 14.8943 18.302 14.5818L17.9817 14.0232C17.8645 13.8201 17.9075 13.5584 18.0911 13.4099C18.4622 13.1013 18.888 12.8552 19.345 12.6834C19.5677 12.6013 19.8177 12.6873 19.9348 12.8943L20.2552 13.4529C20.6653 13.3787 21.0833 13.3787 21.4934 13.4529L21.8138 12.8943C21.9309 12.6873 22.1809 12.6013 22.4036 12.6834C22.8645 12.8552 23.2864 13.1013 23.6575 13.4099C23.8372 13.5584 23.8841 13.8201 23.7669 14.0232L23.4466 14.5818C23.7161 14.8943 23.927 15.2576 24.0677 15.6521H24.7122C24.9466 15.6521 25.1497 15.8201 25.1888 16.0544C25.2669 16.5232 25.2708 17.0154 25.1888 17.5037C25.1497 17.738 24.9466 17.9099 24.7122 17.9099H24.0677C23.927 18.3044 23.7161 18.6677 23.4466 18.9802L23.7669 19.5388C23.8841 19.7419 23.8411 20.0037 23.6575 20.1521C23.2864 20.4607 22.8606 20.7068 22.4036 20.8787C22.1809 20.9607 21.9309 20.8748 21.8138 20.6677L21.4934 20.1091C21.0872 20.1834 20.6653 20.1834 20.2552 20.1091ZM19.845 17.8084C21.3489 18.9646 23.0638 17.2498 21.9075 15.7459C20.4036 14.5896 18.6888 16.3044 19.845 17.8084V17.8084Z" fill="url(#paint0_linear_6_3)"/>
<defs>
<linearGradient id="paint0_linear_6_3" x1="12.7499" y1="0.976807" x2="12.7499" y2="20.9094" gradientUnits="userSpaceOnUse">
<stop stop-color="#5200FF"/>
<stop offset="1" stop-color="#EB00FF"/>
</linearGradient>
</defs>
</svg>
