<svg width="26" height="25" viewBox="0 0 26 25" fill="none" xmlns="http://www.w3.org/2000/svg">
<path d="M24.4728 0.374146H22.1578C22.0785 0.374056 22 0.390083 21.927 0.421254C21.854 0.452425 21.7882 0.498091 21.7334 0.555483C21.6786 0.612875 21.636 0.680797 21.6083 0.75513C21.5805 0.829464 21.5681 0.908659 21.5719 0.987915L21.7672 5.02893C20.6317 3.69079 19.2182 2.61613 17.6251 1.87972C16.032 1.14331 14.2976 0.762838 12.5426 0.764771C5.86976 0.764771 0.428356 6.21057 0.433238 12.8834C0.438121 19.567 5.85804 24.9835 12.5426 24.9835C15.5412 24.9878 18.4339 23.8753 20.6569 21.8629C20.7163 21.8098 20.7642 21.7451 20.7977 21.6728C20.8312 21.6005 20.8496 21.5221 20.8518 21.4424C20.854 21.3628 20.8399 21.2835 20.8105 21.2095C20.781 21.1354 20.7367 21.0682 20.6803 21.0118L19.0202 19.3517C18.9151 19.2466 18.774 19.1854 18.6255 19.1805C18.4771 19.1755 18.3322 19.2271 18.2203 19.3248C16.9086 20.4789 15.2761 21.2058 13.5407 21.4085C11.8053 21.6112 10.0493 21.2801 8.50688 20.4593C6.96443 19.6386 5.7088 18.3672 4.90738 16.8146C4.10595 15.262 3.79681 13.502 4.02116 11.7693C4.24552 10.0365 4.9927 8.41332 6.16312 7.11605C7.33354 5.81879 8.87157 4.90909 10.5722 4.50824C12.2728 4.10739 14.0552 4.23444 15.6818 4.87243C17.3083 5.51043 18.7018 6.62907 19.6764 8.07922L14.7189 7.84143C14.6396 7.83766 14.5604 7.85003 14.4861 7.87778C14.4118 7.90554 14.3438 7.9481 14.2864 8.00289C14.2291 8.05768 14.1834 8.12355 14.1522 8.19652C14.1211 8.26949 14.105 8.34802 14.1051 8.42737V10.7423C14.1051 10.8977 14.1668 11.0467 14.2767 11.1566C14.3866 11.2665 14.5357 11.3282 14.6911 11.3282H24.4728C24.6282 11.3282 24.7772 11.2665 24.8871 11.1566C24.997 11.0467 25.0587 10.8977 25.0587 10.7423V0.960083C25.0587 0.804683 24.997 0.655648 24.8871 0.545763C24.7772 0.435878 24.6282 0.374146 24.4728 0.374146V0.374146Z" fill="url(#paint0_linear_6_5)"/>
<defs>
<linearGradient id="paint0_linear_6_5" x1="12.746" y1="0.374146" x2="12.746" y2="24.9835" gradientUnits="userSpaceOnUse">
<stop stop-color="#5200FF"/>
<stop offset="1" stop-color="#EF32E7"/>
</linearGradient>
</defs>
</svg>
